<?xml version="1.0" standalone="no"?>
<!DOCTYPE svg PUBLIC "-//W3C//DTD SVG 20010904//EN"
 "http://www.w3.org/TR/2001/REC-SVG-20010904/DTD/svg10.dtd">
<svg version="1.0" xmlns="http://www.w3.org/2000/svg"
 width="3450.000000pt" height="630.000000pt" viewBox="0 0 3450.000000 630.000000"
 preserveAspectRatio="xMidYMid meet">

<g transform="translate(0.000000,630.000000) scale(0.100000,-0.100000)"
fill="#000000" stroke="none">
<path d="M3805 6194 c-512 -79 -1109 -391 -1705 -889 -1030 -860 -1737 -1946
-1939 -2978 -90 -457 -82 -845 25 -1166 192 -580 718 -921 1417 -921 336 0
619 50 1437 250 267 65 561 135 653 155 1049 224 1720 186 2186 -122 109 -72
252 -214 319 -318 29 -43 52 -74 52 -68 0 22 172 193 239 237 216 143 411 185
754 165 218 -13 384 -42 599 -105 193 -56 454 -175 617 -281 46 -30 85 -52 87
-50 7 7 -118 143 -196 214 -352 320 -872 653 -1211 777 -565 206 -1220 218
-2169 40 -250 -47 -590 -125 -1110 -254 -966 -240 -1304 -300 -1694 -300 -284
0 -470 34 -652 119 -294 138 -471 377 -541 729 -24 124 -24 427 1 577 154 931
803 2067 1706 2989 396 404 715 653 1035 807 205 99 399 140 511 109 97 -27
147 -121 121 -226 l-12 -49 -60 -7 c-91 -11 -154 -35 -214 -81 -105 -80 -171
-188 -190 -305 -33 -208 98 -317 279 -231 154 73 345 343 405 574 21 82 19
209 -4 284 -48 156 -185 284 -348 326 -72 19 -274 18 -398 -1z"/>
<path d="M19484 6092 c-402 -392 -930 -710 -1416 -851 -223 -65 -393 -90 -618
-92 l-165 -1 -117 -126 c-144 -157 -328 -371 -328 -383 0 -5 3 -9 8 -9 4 0 52
-7 107 -15 131 -19 384 -19 530 0 496 65 1022 330 1464 739 190 175 380 401
523 621 62 96 143 235 136 235 -1 -1 -57 -54 -124 -118z"/>
<path d="M13205 6179 c-389 -53 -953 -316 -1460 -680 -288 -206 -508 -393
-784 -664 -427 -420 -765 -834 -1114 -1365 -455 -694 -709 -1282 -788 -1829
-28 -188 -23 -495 9 -631 79 -332 236 -552 487 -678 405 -202 997 -53 1530
385 129 106 358 338 467 473 392 487 654 1074 674 1510 14 299 -94 491 -306
546 -133 34 -306 -2 -525 -111 -286 -141 -543 -389 -713 -689 -157 -274 -316
-737 -338 -986 l-7 -75 104 100 c204 196 411 347 601 438 103 50 107 54 118
92 62 236 183 510 287 651 118 158 265 264 387 279 77 10 137 -18 167 -77 31
-59 37 -199 15 -323 -46 -248 -184 -580 -342 -823 -188 -288 -492 -624 -714
-789 -210 -156 -343 -213 -514 -221 -185 -8 -302 33 -406 144 -114 122 -154
248 -154 484 -1 173 6 217 70 475 148 595 405 1136 862 1810 435 643 891 1160
1417 1610 399 341 825 606 1079 670 104 27 242 34 291 15 25 -9 23 -12 -72
-76 -249 -169 -465 -345 -653 -534 -450 -451 -729 -1057 -620 -1344 61 -159
228 -228 430 -177 327 81 676 410 989 934 122 203 226 460 273 673 17 78 22
133 22 257 l1 157 35 11 c19 6 94 13 165 16 213 8 351 -27 625 -158 198 -96
260 -132 605 -359 326 -214 452 -292 598 -370 l95 -50 32 37 c18 21 122 131
231 245 l199 206 -133 70 c-72 38 -222 122 -332 187 -386 229 -421 249 -590
331 -264 129 -435 180 -675 205 -257 26 -598 -21 -881 -120 l-105 -38 -39 34
c-116 100 -375 153 -600 122z m565 -539 c0 -194 -75 -463 -200 -715 -123 -250
-257 -432 -471 -641 -217 -211 -363 -304 -493 -312 -62 -3 -75 -1 -106 20
-106 71 -94 241 34 503 123 251 299 488 551 741 164 165 279 262 434 367 72
49 228 136 244 137 4 0 7 -45 7 -100z"/>
<path d="M17901 6130 c-241 -51 -533 -227 -917 -554 -155 -132 -660 -634 -841
-836 -285 -319 -538 -627 -694 -845 -312 -436 -627 -965 -954 -1598 -112 -219
-117 -226 -157 -242 -103 -41 -288 -70 -288 -45 0 6 14 38 30 71 50 99 116
266 153 389 121 399 76 662 -128 756 -292 135 -752 -88 -1267 -614 -533 -544
-884 -1154 -973 -1690 -23 -139 -17 -331 14 -417 30 -84 83 -157 144 -199 80
-55 129 -69 232 -69 188 0 410 108 700 339 131 105 411 382 519 512 90 110
256 357 380 568 l90 151 80 7 c45 3 119 13 165 21 47 8 86 13 88 12 1 -2 -13
-43 -31 -93 -210 -566 -288 -944 -242 -1174 23 -113 55 -177 119 -237 97 -92
257 -126 393 -85 157 48 326 171 563 410 127 128 162 159 157 137 -12 -48 -7
-237 7 -290 33 -119 87 -189 183 -236 84 -42 198 -51 290 -24 165 48 368 181
584 382 l75 70 0 -131 c0 -116 3 -137 23 -182 13 -28 40 -67 60 -87 251 -245
836 125 1463 923 145 184 389 526 389 545 0 3 -48 4 -107 3 l-107 -3 -104
-145 c-305 -424 -567 -700 -747 -787 -103 -49 -135 -43 -135 29 0 64 35 137
207 424 282 474 1113 1884 1113 1889 0 3 -139 5 -309 5 l-309 0 -48 -77 -47
-76 -31 39 c-52 66 -108 113 -173 145 -54 27 -72 31 -142 31 -276 -2 -569
-168 -921 -521 -287 -288 -511 -576 -929 -1196 -268 -398 -400 -565 -524 -663
-82 -65 -117 -82 -169 -82 -91 0 -123 52 -122 195 3 205 91 490 296 953 l81
182 120 81 c154 104 277 195 457 337 264 209 404 336 784 712 450 445 688 713
1036 1164 l84 109 -75 -7 c-169 -15 -142 2 -292 -185 -434 -539 -1086 -1199
-1553 -1574 -128 -102 -330 -247 -346 -247 -19 0 235 462 442 805 527 872
1037 1538 1611 2100 250 245 429 390 566 459 60 30 127 35 137 10 25 -65 -22
-226 -130 -444 -40 -80 -70 -147 -68 -149 4 -4 70 12 165 40 l66 19 37 81 c89
195 145 416 132 523 -10 74 -39 115 -107 149 -64 32 -170 43 -248 27z m-3907
-3165 c126 -60 143 -307 39 -570 -38 -98 -145 -309 -170 -337 -23 -26 -41 -23
-134 24 -200 99 -316 297 -279 475 23 110 90 214 194 301 50 42 146 97 196
113 43 13 120 10 154 -6z m3552 -40 c12 -8 27 -28 34 -45 15 -36 28 -13 -345
-635 -311 -519 -431 -708 -598 -944 -245 -344 -390 -480 -512 -481 -90 0 -134
65 -120 179 33 273 420 946 814 1416 113 136 377 397 451 446 108 72 226 100
276 64z m-4157 -835 c88 -87 185 -158 292 -213 32 -17 59 -34 59 -37 0 -27
-250 -406 -356 -540 -91 -115 -294 -316 -377 -375 -205 -144 -369 -123 -408
51 -42 185 111 573 385 983 72 108 156 229 185 268 l54 73 40 -63 c23 -34 79
-100 126 -147z"/>
<path d="M26940 5343 c-102 -141 -186 -260 -188 -265 -2 -4 63 -8 145 -8 l148
0 223 250 c122 137 222 256 222 265 0 13 -25 15 -182 15 l-183 -1 -185 -256z"/>
<path d="M29830 5504 c-101 -44 -144 -166 -94 -265 30 -59 114 -109 184 -109
68 0 152 48 182 104 51 95 10 223 -86 267 -50 23 -137 24 -186 3z"/>
<path d="M21001 5418 c-5 -13 -224 -534 -486 -1158 -263 -624 -480 -1143 -482
-1152 -5 -17 8 -18 165 -18 l169 0 125 308 125 307 589 2 589 3 123 -310 124
-310 175 0 c136 0 174 3 170 13 -7 17 -845 2019 -919 2195 l-60 142 -199 0
c-198 0 -200 0 -208 -22z m443 -844 c124 -309 226 -564 226 -568 0 -3 -210 -6
-466 -6 -283 0 -464 4 -462 9 42 119 465 1138 469 1133 4 -4 109 -259 233
-568z"/>
<path d="M23490 4895 c-151 -33 -275 -100 -372 -203 l-58 -61 0 120 0 119
-150 0 -150 0 2 -887 3 -888 155 0 155 0 5 585 c5 572 5 586 27 638 77 188
263 302 492 302 220 0 372 -120 417 -329 11 -52 14 -184 14 -633 l0 -568 155
0 155 0 0 543 c0 349 4 565 11 603 32 177 182 324 376 370 92 22 237 14 315
-15 100 -39 178 -116 222 -224 20 -51 21 -67 26 -662 l5 -610 155 0 155 0 0
630 c0 708 2 684 -76 843 -73 150 -205 256 -389 314 -65 20 -96 23 -225 23
-159 0 -215 -10 -337 -59 -116 -47 -231 -133 -299 -223 l-24 -32 -50 67 c-90
120 -241 212 -399 241 -80 15 -236 13 -316 -4z"/>
<path d="M26825 4900 c-481 -65 -804 -466 -782 -970 7 -149 31 -251 88 -370
127 -266 369 -440 689 -496 117 -20 375 -14 490 11 158 35 311 110 407 200
l54 50 -92 107 -92 107 -35 -31 c-96 -84 -234 -146 -375 -168 -94 -16 -277 -8
-362 14 -222 59 -390 229 -439 443 l-14 63 756 2 757 3 6 50 c9 70 -8 246 -32
334 -86 317 -329 556 -641 631 -97 24 -282 33 -383 20z m319 -295 c86 -23 174
-71 239 -134 99 -93 137 -163 184 -333 4 -17 -29 -18 -600 -18 l-605 0 15 58
c60 234 246 405 483 442 70 11 212 4 284 -15z"/>
<path d="M31295 4895 c-224 -42 -398 -135 -546 -293 -159 -170 -240 -381 -239
-626 1 -255 85 -461 260 -636 169 -169 351 -252 618 -281 273 -29 561 41 730
179 92 74 93 61 -10 181 -51 58 -93 108 -94 110 -2 2 -24 -15 -49 -37 -54 -47
-166 -104 -250 -127 -33 -8 -107 -18 -165 -22 -392 -22 -698 237 -717 607 -15
290 149 537 423 636 234 85 517 36 704 -123 l37 -32 92 110 c51 61 90 116 88
123 -9 22 -129 107 -210 147 -134 68 -236 90 -427 95 -118 2 -188 -1 -245 -11z"/>
<path d="M33089 4886 c-147 -26 -291 -75 -385 -132 -72 -43 -124 -82 -124 -93
0 -7 137 -191 160 -215 4 -4 28 5 52 22 70 48 161 90 255 118 116 35 322 44
426 20 137 -32 249 -111 300 -213 27 -52 47 -134 47 -187 l0 -34 -347 -5
c-383 -5 -467 -14 -628 -68 -266 -89 -405 -260 -405 -498 0 -159 42 -264 147
-362 77 -71 211 -139 328 -166 118 -27 339 -24 459 5 167 42 305 119 400 223
l54 60 17 -57 c22 -77 104 -161 190 -194 72 -28 232 -39 289 -20 l36 12 0 127
0 127 -68 -4 c-50 -3 -78 0 -100 12 -60 31 -60 29 -65 521 -4 498 -6 512 -72
645 -83 164 -223 273 -430 336 -81 24 -109 27 -275 30 -124 2 -210 -1 -261
-10z m726 -1028 c-31 -226 -123 -362 -307 -452 -108 -53 -181 -74 -293 -82
-254 -20 -442 84 -462 256 -16 140 81 249 262 295 107 26 195 32 503 34 l304
1 -7 -52z"/>
<path d="M29058 4880 c-181 -33 -333 -118 -436 -245 l-32 -40 0 138 0 138
-147 -3 -148 -3 -3 -887 -2 -888 160 0 160 0 0 530 c0 347 4 547 11 582 38
182 183 321 389 374 71 18 232 24 318 11 l52 -8 0 145 c0 128 -2 145 -17 151
-27 11 -252 15 -305 5z"/>
<path d="M29767 4864 c-4 -4 -7 -405 -7 -891 l0 -883 160 0 160 0 -2 888 -3
887 -151 3 c-82 1 -153 -1 -157 -4z"/>
<path d="M4065 4720 c-273 -72 -575 -271 -901 -595 -483 -480 -848 -1053 -973
-1525 -42 -162 -55 -263 -48 -399 10 -227 96 -374 267 -455 60 -29 73 -31 175
-31 131 0 192 18 355 102 193 99 393 256 635 498 238 238 347 380 629 825 75
118 142 218 149 222 17 9 279 69 284 65 2 -3 -44 -94 -102 -203 -207 -392
-285 -639 -285 -903 0 -266 97 -445 298 -549 109 -57 193 -75 312 -69 302 17
664 226 1114 643 83 76 146 130 142 119 -4 -11 -19 -65 -34 -120 -23 -87 -27
-120 -27 -250 l0 -150 33 -68 c56 -113 147 -161 302 -160 217 0 455 126 712
374 l66 65 4 -116 c3 -92 8 -125 26 -165 80 -176 291 -206 544 -79 273 137
659 503 1064 1009 75 93 272 354 288 383 6 9 -17 12 -101 12 l-108 0 -119
-146 c-394 -483 -680 -743 -816 -744 -43 0 -53 75 -22 158 10 27 305 527 656
1111 350 584 640 1069 643 1077 4 12 -41 14 -304 14 l-308 0 -33 -54 -32 -54
-55 54 c-34 34 -80 67 -122 87 -59 28 -78 32 -148 31 -357 -2 -837 -370 -1400
-1074 -72 -91 -192 -246 -267 -345 -717 -956 -1263 -1349 -1504 -1083 -47 52
-64 95 -71 179 -13 156 51 371 197 666 223 450 445 763 741 1047 187 179 366
299 465 313 51 7 120 -12 149 -42 30 -29 40 -80 26 -132 l-11 -40 -63 -5
c-131 -11 -256 -109 -332 -263 -62 -126 -58 -224 10 -284 120 -105 291 -26
438 200 70 108 98 164 133 269 36 108 41 254 10 335 -64 168 -217 260 -431
259 -287 -1 -542 -148 -1024 -592 -298 -275 -393 -352 -548 -440 -82 -47 -221
-102 -257 -102 -15 0 -15 3 0 38 121 274 183 534 171 706 -15 200 -106 324
-275 376 -83 26 -220 26 -317 0z m266 -281 c32 -16 78 -79 90 -121 19 -65 14
-201 -10 -301 -21 -90 -86 -258 -141 -366 -29 -59 -32 -61 -69 -61 -22 0 -71
11 -110 24 -139 47 -232 120 -282 222 -29 58 -31 69 -27 146 3 67 9 95 34 148
71 149 216 274 367 315 51 14 115 11 148 -6z m4066 -34 c13 -14 23 -34 23 -44
0 -38 -642 -1115 -853 -1431 -198 -296 -426 -558 -531 -609 -99 -48 -188 -32
-213 39 -57 161 195 673 593 1205 161 214 390 501 481 602 85 94 203 192 274
229 101 51 187 54 226 9z m-4749 -742 c84 -101 239 -191 460 -268 17 -6 -16
-67 -145 -265 -280 -427 -564 -723 -768 -799 -97 -36 -164 -24 -222 42 -68 78
-66 220 7 439 75 225 192 438 431 783 l141 205 30 -46 c16 -26 46 -67 66 -91z"/>
<path d="M9508 4400 l-166 -270 296 0 297 1 160 260 c88 143 162 265 163 270
2 5 -116 9 -290 9 l-293 0 -167 -270z"/>
<path d="M26060 2524 c-101 -44 -144 -166 -94 -265 30 -59 114 -109 184 -109
68 0 152 48 182 104 51 95 10 223 -86 267 -50 23 -137 24 -186 3z"/>
<path d="M20247 2454 c-4 -4 -7 -533 -7 -1176 l0 -1168 875 0 875 0 0 145 0
145 -710 0 -710 0 -2 1028 -3 1027 -156 3 c-85 1 -158 -1 -162 -4z"/>
<path d="M24773 2378 l-153 -72 0 -208 0 -207 -152 -3 -153 -3 0 -130 0 -130
153 -3 152 -3 0 -522 c0 -576 3 -604 61 -723 71 -144 222 -248 403 -279 153
-26 320 -16 434 27 l52 19 0 141 0 140 -22 -7 c-230 -71 -407 -58 -516 40 -29
27 -59 65 -73 97 l-24 53 -3 508 -3 507 316 0 316 0 -3 133 -3 132 -312 3
-313 2 -2 280 -3 279 -152 -71z"/>
<path d="M27600 1911 c-154 -33 -283 -103 -377 -204 l-53 -56 0 120 0 119
-150 0 -150 0 2 -887 3 -888 155 0 155 0 5 586 5 585 38 76 c87 177 272 278
512 278 250 0 406 -108 460 -317 12 -47 15 -155 15 -635 l0 -578 155 0 155 0
0 628 c0 590 -1 633 -19 705 -60 232 -224 394 -466 462 -95 26 -338 30 -445 6z"/>
<path d="M22919 1906 c-147 -26 -291 -75 -385 -132 -72 -43 -124 -82 -124 -93
0 -7 137 -191 160 -215 4 -4 28 5 52 22 70 48 161 90 255 118 116 35 322 44
426 20 137 -32 249 -111 300 -213 27 -52 47 -134 47 -187 l0 -34 -347 -5
c-383 -5 -467 -14 -628 -68 -266 -89 -405 -260 -405 -498 0 -159 42 -264 147
-362 77 -71 211 -139 328 -166 118 -27 339 -24 459 5 167 42 305 119 400 223
l54 60 17 -57 c22 -77 104 -161 190 -194 72 -28 232 -39 289 -20 l36 12 0 127
0 127 -68 -4 c-50 -3 -78 0 -100 12 -60 31 -60 29 -65 521 -4 498 -6 512 -72
645 -83 164 -223 273 -430 336 -81 24 -109 27 -275 30 -124 2 -210 -1 -261
-10z m726 -1028 c-31 -226 -123 -362 -307 -452 -108 -53 -181 -74 -293 -82
-254 -20 -442 84 -462 256 -16 140 81 249 262 295 107 26 195 32 503 34 l304
1 -7 -52z"/>
<path d="M29579 1906 c-147 -26 -291 -75 -385 -132 -72 -43 -124 -82 -124 -93
0 -7 137 -191 160 -215 4 -4 28 5 52 22 70 48 161 90 255 118 116 35 322 44
426 20 137 -32 249 -111 300 -213 27 -52 47 -134 47 -187 l0 -34 -347 -5
c-383 -5 -467 -14 -628 -68 -266 -89 -405 -260 -405 -498 0 -159 42 -264 147
-362 77 -71 211 -139 328 -166 118 -27 339 -24 459 5 167 42 305 119 400 223
l54 60 17 -57 c22 -77 104 -161 190 -194 72 -28 232 -39 289 -20 l36 12 0 127
0 127 -68 -4 c-50 -3 -78 0 -100 12 -60 31 -60 29 -65 521 -4 498 -6 512 -72
645 -83 164 -223 273 -430 336 -81 24 -109 27 -275 30 -124 2 -210 -1 -261
-10z m726 -1028 c-31 -226 -123 -362 -307 -452 -108 -53 -181 -74 -293 -82
-254 -20 -442 84 -462 256 -16 140 81 249 262 295 107 26 195 32 503 34 l304
1 -7 -52z"/>
<path d="M25997 1884 c-4 -4 -7 -405 -7 -891 l0 -883 160 0 160 0 -2 888 -3
887 -151 3 c-82 1 -153 -1 -157 -4z"/>
</g>
</svg>
