<?xml version="1.0" encoding="UTF-8"?>
<svg width="17px" height="17px" viewBox="0 0 17 17" version="1.1" xmlns="http://www.w3.org/2000/svg" xmlns:xlink="http://www.w3.org/1999/xlink">
    <g id="Page-1" stroke="none" stroke-width="1" fill="none" fill-rule="evenodd">
        <g id="expand" transform="translate(-3.000000, -3.000000)" fill="#333333" fill-rule="nonzero">
            <path d="M11.3933978,19.4497474 C15.8306298,19.4497474 19.4497468,15.8444964 19.4497468,11.3933982 C19.4497468,6.94229993 15.8306298,3.33704901 11.3933978,3.33704901 C6.95616579,3.33704901 3.33704879,6.95616628 3.33704879,11.3933982 C3.33704879,15.8306301 6.95616579,19.4497474 11.3933978,19.4497474 L11.3933978,19.4497474 Z M11.3933978,4.47408968 C15.2066438,4.47408968 18.3127068,7.58015202 18.3127068,11.3933982 C18.3127068,15.2066444 15.2066438,18.3127067 11.3933978,18.3127067 C7.58015179,18.3127067 4.47408979,15.2066444 4.47408979,11.3933982 C4.47408979,7.58015202 7.58015179,4.47408968 11.3933978,4.47408968 Z M8.37053379,14.3330643 C8.48146479,14.4439951 8.62012779,14.4994605 8.77265779,14.4994605 C8.92518779,14.4994605 9.06385179,14.4439951 9.17478179,14.3330643 L14.4162628,9.09158411 C14.6381238,8.86972251 14.6381238,8.50919741 14.4162628,8.28733581 C14.1944008,8.06547421 13.8338758,8.06547421 13.6120138,8.28733581 L8.37053379,13.528816 C8.25960289,13.6397469 8.25960279,14.2221335 8.37053379,14.3330643 Z" transform="translate(11.393398, 11.393398) rotate(45.000000) translate(-11.393398, -11.393398) "></path>
        </g>
    </g>
</svg>