<?xml version="1.0" encoding="UTF-8"?>
<svg width="17px" height="17px" viewBox="0 0 17 17" version="1.1" xmlns="http://www.w3.org/2000/svg" xmlns:xlink="http://www.w3.org/1999/xlink">
    <!-- Generator: Sketch 52.6 (67491) - http://www.bohemiancoding.com/sketch -->
    <title>expand</title>
    <desc>Created with Sketch.</desc>
    <g id="Page-1" stroke="none" stroke-width="1" fill="none" fill-rule="evenodd">
        <g id="media-center-feed" transform="translate(-808.000000, -2273.000000)" fill="#333333">
            <g id="Group-11" transform="translate(219.000000, 2268.000000)">
                <g id="Group-12" transform="translate(431.000000, 0.000000)">
                    <path d="M166.393398,21.4497475 C170.83063,21.4497475 174.449747,17.8444965 174.449747,13.3933983 C174.449747,8.94230002 170.83063,5.3370491 166.393398,5.3370491 C161.956166,5.3370491 158.337049,8.95616637 158.337049,13.3933983 C158.337049,17.8306302 161.956166,21.4497475 166.393398,21.4497475 L166.393398,21.4497475 Z M166.393398,6.47408977 C170.206644,6.47408977 173.312707,9.58015211 173.312707,13.3933983 C173.312707,17.2066445 170.206644,20.3127068 166.393398,20.3127068 C162.580152,20.3127068 159.47409,17.2066445 159.47409,13.3933983 C159.47409,9.58015211 162.580152,6.47408977 166.393398,6.47408977 Z M163.370534,16.3330644 C163.481465,16.4439952 163.620128,16.4994606 163.772658,16.4994606 C163.925188,16.4994606 164.063852,16.4439952 164.174782,16.3330644 L166.393398,14.1144485 L168.612014,16.3330644 C168.722945,16.4439952 168.861609,16.4994606 169.014138,16.4994606 C169.166668,16.4994606 169.305332,16.4439952 169.416263,16.3330644 C169.638124,16.1112028 169.638124,15.7506777 169.416263,15.5288161 L167.197647,13.3102002 L169.416263,11.0915842 C169.638124,10.8697226 169.638124,10.5091975 169.416263,10.2873359 C169.194401,10.0654743 168.833876,10.0654743 168.612014,10.2873359 L166.393398,12.5059519 L164.174782,10.2873359 C163.952921,10.0654743 163.592396,10.0654743 163.370534,10.2873359 C163.148672,10.5091975 163.148672,10.8697226 163.370534,11.0915842 L165.58915,13.3102002 L163.370534,15.5288161 C163.148672,15.7506777 163.148672,16.1112028 163.370534,16.3330644 Z" id="expand" transform="translate(166.393398, 13.393398) rotate(45.000000) translate(-166.393398, -13.393398) "></path>
                </g>
            </g>
        </g>
    </g>
</svg>